<svg width="65" height="64" viewBox="0 0 65 64" fill="none" xmlns="http://www.w3.org/2000/svg">
<g clip-path="url(#clip0_717_100)">
<path d="M1.26477 7.11111C1.26477 3.184 4.38926 0 8.24296 0H57.0903C60.944 0 64.0685 3.184 64.0685 7.11111V56.8889C64.0685 60.816 60.944 64 57.0903 64H8.24296C4.38926 64 1.26477 60.816 1.26477 56.8889V7.11111Z" fill="#FF41C8"/>
<path d="M12.6666 12V52H52.6666V12H12.6666ZM26.124 28.9267L28.676 22.416H33.064L28.6106 31.8173L33.168 41.3747H28.728L26.124 34.7467L23.5333 41.3747H19.0933L23.6506 31.8173L19.184 22.416H23.572L26.124 28.9267ZM34.092 33.9013C34.092 31.592 34.4826 29.8693 35.264 28.732C36.0453 27.5947 37.1813 27.0267 38.676 27.0267C39.76 27.0267 40.664 27.496 41.384 28.4333V21.376H45.0946V41.376H41.748L41.5786 39.944C40.824 41.0733 39.8506 41.6373 38.6613 41.6373C37.1866 41.6373 36.06 41.0733 35.2826 39.944C34.5053 38.8147 34.108 37.1573 34.0906 34.9707L34.092 33.9013ZM37.7906 34.8253C37.7906 36.2147 37.9373 37.1853 38.2333 37.736C38.5293 38.2867 39.028 38.5627 39.7306 38.5627C40.46 38.5627 41.0106 38.2373 41.384 37.5867V31.1547C41.02 30.46 40.472 30.1133 39.744 30.1133C39.0666 30.1133 38.572 30.3867 38.26 30.9333C37.948 31.48 37.7906 32.4533 37.7906 33.8507V34.8253Z" fill="#16020B"/>
</g>
<defs>
<clipPath id="clip0_717_100">
<rect width="64" height="64" fill="white" transform="translate(0.666626)"/>
</clipPath>
</defs>
</svg>
