<svg width="65" height="64" viewBox="0 0 65 64" fill="none" xmlns="http://www.w3.org/2000/svg">
<g clip-path="url(#clip0_717_94)">
<path d="M26.6406 21.8961H26.5458C26.064 23.8345 25.5822 26.2965 25.0474 28.1819L23.1127 35.0898H30.3127L28.2832 28.1819C27.7066 26.2472 27.1262 23.8345 26.6406 21.8961Z" fill="#FF7D00"/>
<path d="M60.7442 0H4.5853C2.41922 0 0.666626 1.75259 0.666626 3.91868V60.0813C0.666626 62.2436 2.41922 64 4.5853 64H60.748C62.9102 64 64.6666 62.2436 64.6666 60.0813V3.91868C64.6666 1.75639 62.9102 0 60.7442 0ZM33.89 48.955L31.3749 40.5979H22.0543L19.7327 48.955H12.1002L22.0543 16.3955H31.7126L41.8146 48.955H33.89ZM52.9903 48.955H45.6423V25.3329H52.9903V48.955ZM49.2726 22.4347C46.9548 22.4347 45.4071 20.7883 45.4526 18.7588C45.4071 16.6307 46.9548 15.045 49.3257 15.045C51.6891 15.045 53.1875 16.6345 53.233 18.7588C53.233 20.7883 51.6891 22.4347 49.2726 22.4347Z" fill="#FF7D00"/>
</g>
<defs>
<clipPath id="clip0_717_94">
<rect width="64" height="64" fill="white" transform="translate(0.666626)"/>
</clipPath>
</defs>
</svg>
