<svg width="11" height="24" viewBox="0 0 11 24" fill="none" xmlns="http://www.w3.org/2000/svg">
<g clip-path="url(#clip0_711_185)">
<path d="M5.31446 0.0657043L5.95464 1.26865C6.09859 1.49059 6.25458 1.68715 6.43811 1.87021C6.97411 2.40643 7.48313 2.96803 7.94051 3.56959C9.02511 4.99448 9.75688 6.57686 10.2792 8.28813C10.5926 9.33357 10.7627 10.406 10.7754 11.4903C10.8278 14.7323 9.71693 17.516 7.47719 19.8294C7.1114 20.1953 6.72006 20.5343 6.30028 20.8358C6.07843 20.8358 5.97336 20.6655 5.88195 20.5089C5.71192 20.2216 5.60756 19.8938 5.5552 19.5677C5.4764 19.1753 5.42476 18.7832 5.45031 18.3782V18.1953C5.43231 18.1563 5.23673 0.158045 5.31464 0.0658843V0.0660643L5.31446 0.0657043Z" fill="#030A15"/>
<path d="M5.31447 0.0257553C5.2882 -0.0266249 5.26211 0.0129752 5.23566 0.0385353C5.24843 0.300976 5.15685 0.534977 5.01381 0.758537C4.85637 0.980478 4.64802 1.15094 4.43876 1.33382C3.27697 2.3402 2.36239 3.55592 1.62991 4.91547C0.65542 6.74535 0.153062 8.70628 0.010739 10.7709C-0.0543948 11.5155 0.246264 14.1434 0.48089 14.9015C1.12107 16.9143 2.27099 18.6009 3.76043 20.0647C4.12623 20.4171 4.51757 20.744 4.92241 21.0583C5.04008 21.0583 5.05285 20.9533 5.07966 20.8752C5.13094 20.7082 5.17071 20.5375 5.19734 20.3651L5.45967 18.4049L5.31429 0.0257553H5.31447Z" fill="#030A15" fill-opacity="0.58"/>
<path d="M5.95461 21.6319C5.98088 21.3319 6.12482 21.0829 6.28154 20.8347C6.1241 20.7695 6.00715 20.6398 5.91574 20.495C5.83694 20.3645 5.7718 20.2078 5.72088 20.0638C5.5379 19.5148 5.49903 18.9388 5.44649 18.3779V18.0382C5.38136 18.0906 5.36768 18.5346 5.36768 18.6007C5.33116 19.192 5.25001 19.7851 5.13234 20.3656C5.09329 20.6011 5.06721 20.8358 4.92236 21.0449C4.92236 21.0712 4.92236 21.0973 4.93514 21.1366C5.17048 21.8296 5.23508 22.5352 5.27466 23.2544V23.5169C5.27466 23.8303 5.26189 23.7642 5.52206 23.8693C5.62696 23.9084 5.74391 23.9217 5.84881 23.9998C5.92762 23.9998 5.94039 23.9347 5.94039 23.8821L5.90135 23.4508V22.2479C5.88858 22.0378 5.92762 21.8294 5.95371 21.633L5.95461 21.6319Z" fill="#030A15"/>
</g>
<defs>
<clipPath id="clip0_711_185">
<rect width="10.7755" height="24" fill="white" transform="translate(0.00170898)"/>
</clipPath>
</defs>
</svg>
