<svg width="42" height="24" viewBox="0 0 42 24" fill="none" xmlns="http://www.w3.org/2000/svg">
<g clip-path="url(#clip0_711_150)">
<path fill-rule="evenodd" clip-rule="evenodd" d="M20.9877 0C15.5996 0 12.2312 2.66667 10.8825 8C12.9044 5.33442 15.2619 4.33456 17.9549 5.00041C19.4943 5.38027 20.5864 6.48383 21.8101 7.70528C23.7838 9.69627 26.0864 11.9984 31.093 11.9984C36.4812 11.9984 39.8496 9.3317 41.1983 3.99836C39.1785 6.66612 36.8211 7.66598 34.1259 6.99795C32.5864 6.61809 31.4943 5.51453 30.2706 4.29308C28.2904 2.29226 25.9976 0 20.9877 0ZM10.8825 11.9984C5.49433 11.9984 2.12591 14.665 0.777222 19.9984C2.80134 17.3328 5.1588 16.3329 7.84959 16.9988C9.38906 17.3786 10.4812 18.4822 11.7049 19.7069C13.6785 21.6946 15.9812 24 20.9877 24C26.3759 24 29.7443 21.3333 31.093 16C29.0733 18.6656 26.7158 19.6633 24.0206 18.993C22.4812 18.6132 21.3891 17.5096 20.1654 16.2882C18.1917 14.2972 15.8891 11.9918 10.8825 11.9918V11.9984Z" fill="#030A15"/>
</g>
<defs>
<clipPath id="clip0_711_150">
<rect width="40.4211" height="24" fill="white" transform="translate(0.777222)"/>
</clipPath>
</defs>
</svg>
