<svg width="57" height="64" viewBox="0 0 57 64" fill="none" xmlns="http://www.w3.org/2000/svg">
<g clip-path="url(#clip0_717_83)">
<path d="M-2.57385 0V64H59.8059V0H-2.57385ZM31.373 49.9143C31.373 56.1429 27.8084 58.9857 22.6148 58.9857C17.9223 58.9857 15.2072 56.5 13.8148 53.4857L18.5907 50.5286C19.5097 52.2 20.3451 53.6143 22.3641 53.6143C24.2856 53.6143 25.511 52.8429 25.511 49.8286V29.3857H31.373V49.9143ZM45.2413 58.9857C39.797 58.9857 36.2743 56.3286 34.5616 52.8429L39.3375 50.0143C40.5907 52.1143 42.2337 53.6714 45.116 53.6714C47.5388 53.6714 49.0983 52.4286 49.0983 50.7C49.0983 48.6429 47.511 47.9143 44.8236 46.7L43.3616 46.0571C39.1287 44.2143 36.3299 41.8857 36.3299 36.9857C36.3299 32.4714 39.6856 29.0429 44.9072 29.0429C48.6388 29.0429 51.3122 30.3714 53.2337 33.8571L48.6667 36.8571C47.6641 35.0143 46.578 34.2857 44.8932 34.2857C43.1806 34.2857 42.0945 35.4 42.0945 36.8571C42.0945 38.6571 43.1806 39.3857 45.7008 40.5143L47.1629 41.1571C52.1477 43.3429 54.9464 45.5857 54.9464 50.6143C54.9464 56.0143 50.797 58.9857 45.2413 58.9857Z" fill="#FFD600"/>
</g>
<defs>
<clipPath id="clip0_717_83">
<rect width="55.8987" height="64" fill="white" transform="translate(0.666626)"/>
</clipPath>
</defs>
</svg>
