<svg width="44" height="64" viewBox="0 0 44 64" fill="none" xmlns="http://www.w3.org/2000/svg">
<g clip-path="url(#clip0_717_88)">
<path d="M22.1844 32C22.1844 29.171 23.3083 26.4579 25.3086 24.4575C27.309 22.4571 30.0221 21.3333 32.8511 21.3333C35.6801 21.3333 38.3932 22.4571 40.3936 24.4575C42.394 26.4579 43.5178 29.171 43.5178 32C43.5178 34.829 42.394 37.5421 40.3936 39.5424C38.3932 41.5428 35.6801 42.6666 32.8511 42.6666C30.0221 42.6666 27.309 41.5428 25.3086 39.5424C23.3083 37.5421 22.1844 34.829 22.1844 32Z" fill="#1ABCFE"/>
<path d="M0.851074 53.3334C0.851074 50.5044 1.97488 47.7913 3.97527 45.7909C5.97566 43.7905 8.68876 42.6667 11.5177 42.6667H22.1844V53.3334C22.1844 56.1623 21.0606 58.8754 19.0602 60.8758C17.0598 62.8762 14.3467 64 11.5177 64C8.68876 64 5.97566 62.8762 3.97527 60.8758C1.97488 58.8754 0.851074 56.1623 0.851074 53.3334H0.851074Z" fill="#0ACF83"/>
<path d="M22.1844 0V21.3333H32.8511C35.6801 21.3333 38.3932 20.2095 40.3936 18.2091C42.394 16.2087 43.5178 13.4956 43.5178 10.6667C43.5178 7.83769 42.394 5.12458 40.3936 3.12419C38.3932 1.12381 35.6801 0 32.8511 0L22.1844 0Z" fill="#FF7262"/>
<path d="M0.851074 10.6667C0.851074 13.4956 1.97488 16.2087 3.97527 18.2091C5.97566 20.2095 8.68876 21.3333 11.5177 21.3333H22.1844V0H11.5177C8.68876 0 5.97566 1.12381 3.97527 3.12419C1.97488 5.12458 0.851074 7.83769 0.851074 10.6667H0.851074Z" fill="#F24E1E"/>
<path d="M0.851074 32C0.851074 34.829 1.97488 37.5421 3.97527 39.5424C5.97566 41.5428 8.68876 42.6666 11.5177 42.6666H22.1844V21.3333H11.5177C8.68876 21.3333 5.97566 22.4571 3.97527 24.4575C1.97488 26.4579 0.851074 29.171 0.851074 32H0.851074Z" fill="#A259FF"/>
</g>
<defs>
<clipPath id="clip0_717_88">
<rect width="42.6667" height="64" fill="white" transform="translate(0.851074)"/>
</clipPath>
</defs>
</svg>
