<svg width="82" height="64" viewBox="0 0 82 64" fill="none" xmlns="http://www.w3.org/2000/svg">
<g clip-path="url(#clip0_717_85)">
<path d="M38.5722 47.365C38.4968 47.5 38.5345 47.44 38.5722 47.365V47.365ZM69.8582 36.49C67.3325 36.4892 64.8403 37.0666 62.5745 38.1775C61.8336 36.69 61.0675 35.39 60.942 34.415C60.7913 33.2775 60.628 32.6025 60.8038 31.2525C60.9796 29.9025 61.7708 27.99 61.7582 27.8525C61.7457 27.715 61.5824 27.0275 59.9624 27.015C58.3424 27.0025 56.9485 27.3275 56.7865 27.7525C56.5004 28.5292 56.2778 29.3276 56.1209 30.14C55.8321 31.6025 52.8821 36.8275 51.2119 39.5525C50.6594 38.49 50.1947 37.5525 50.0942 36.8025C49.9435 35.665 49.7803 34.99 49.9561 33.64C50.1319 32.29 50.9231 30.3775 50.9105 30.24C50.898 30.1025 50.7347 29.415 49.116 29.4025C47.4972 29.39 46.102 29.715 45.9388 30.14C45.7755 30.565 45.5997 31.565 45.2732 32.5275C44.9467 33.49 41.0172 42.19 39.9887 44.4525C39.4613 45.6025 39.0092 46.5275 38.6827 47.1525C38.6324 47.2525 38.5948 47.315 38.5696 47.365C38.6073 47.3025 38.6324 47.24 38.6324 47.265C38.3562 47.8025 38.1929 48.1025 38.1929 48.1025V48.115C37.9794 48.515 37.7408 48.8775 37.6278 48.8775C37.5524 48.8775 37.3892 47.8275 37.6655 46.39C38.2557 43.365 39.6496 38.665 39.6371 38.5025C39.6245 38.415 39.9008 37.6025 38.7203 37.165C37.5775 36.7525 37.1631 37.44 37.0627 37.44C36.9622 37.44 36.8868 37.69 36.8868 37.69C36.8868 37.69 38.1552 32.39 34.4518 32.39C32.1411 32.39 28.9262 34.915 27.3464 37.2025C26.3543 37.74 24.2069 38.9025 21.9464 40.14C21.0799 40.615 20.1883 41.1025 19.3469 41.565C19.2841 41.5025 19.2339 41.44 19.1711 41.3775C14.6765 36.6025 6.37811 33.2275 6.72974 26.815C6.85532 24.4775 7.6716 18.34 22.6874 10.89C34.9943 4.79002 44.8336 6.46502 46.5277 10.19C48.964 15.5025 41.2671 25.39 28.4867 26.815C23.6154 27.3525 21.0548 25.4775 20.4143 24.7775C19.7488 24.04 19.6483 24.0025 19.3971 24.14C18.9827 24.365 19.2464 25.015 19.3971 25.4025C19.7739 26.39 21.3436 28.14 24.0173 29.015C26.3656 29.7775 32.0771 30.2025 38.9828 27.54C46.7412 24.565 52.7804 16.2775 51.0097 9.34002C49.2064 2.29002 37.462 -0.022481 26.3568 3.90252C19.74 6.24002 12.5843 9.91502 7.43676 14.7025C1.3222 20.4025 0.343923 25.365 0.745783 27.44C2.17616 34.8025 12.3709 39.6025 16.451 43.1525C16.2501 43.265 16.0617 43.365 15.8859 43.465C13.8402 44.4775 6.06792 48.5275 4.12267 52.8025C1.92499 57.6525 4.48685 61.1275 6.16839 61.6025C11.4164 63.0525 16.7901 60.44 19.6772 56.1525C22.5643 51.865 22.2139 46.265 20.8828 43.715C20.8702 43.6775 20.8451 43.6525 20.8325 43.615C21.36 43.3025 21.9 42.99 22.44 42.6775C23.481 42.065 24.4982 41.5025 25.3899 41.015C24.8875 42.365 24.5234 43.99 24.335 46.34C24.1089 49.09 25.2517 52.6525 26.7336 54.0525C27.3866 54.665 28.1765 54.6775 28.6663 54.6775C30.3993 54.6775 31.1779 53.2525 32.0432 51.5525C33.1106 49.4775 34.0525 47.065 34.0525 47.065C34.0525 47.065 32.872 53.59 36.0995 53.59C37.2787 53.59 38.4591 52.0775 38.9878 51.3025V51.315C38.9878 51.315 39.0129 51.265 39.0757 51.165C39.2013 50.9775 39.2641 50.865 39.2641 50.865V50.8275C39.7413 50.015 40.7836 48.1525 42.3521 45.0775C44.3866 41.1025 46.3318 36.14 46.3318 36.14C46.5198 37.2309 46.7799 38.3082 47.1104 39.365C47.4621 40.5525 48.203 41.8525 48.7932 43.115C48.316 43.765 48.0272 44.14 48.0272 44.14C48.0281 44.1496 48.0326 44.1585 48.0397 44.165C47.663 44.665 47.236 45.2025 46.7965 45.7275C45.1903 47.6275 43.2802 49.8025 43.029 50.4275C42.7276 51.165 42.803 51.715 43.3807 52.14C43.8076 52.465 44.5611 52.515 45.351 52.4525C46.7952 52.3525 47.8124 52.0025 48.3022 51.7775C49.2051 51.4552 50.0585 51.0093 50.8377 50.4525C52.4075 49.3025 53.3619 47.6525 53.274 45.4775C53.2237 44.2775 52.8344 43.0775 52.3572 41.9525C52.4954 41.7525 52.6461 41.54 52.7842 41.3275C55.2695 37.715 57.1908 33.75 57.1908 33.75C57.3788 34.8409 57.6389 35.9182 57.9694 36.975C58.2708 37.9875 58.8598 39.1 59.3998 40.1875C57.0653 42.075 55.6211 44.2625 55.1188 45.7C54.1895 48.3625 54.9178 49.5625 56.2867 49.8375C56.902 49.9625 57.7811 49.675 58.4341 49.4C59.4039 49.0785 60.3184 48.6105 61.1454 48.0125C62.7152 46.8625 64.2335 45.25 64.133 43.0625C64.0953 42.075 63.819 41.0875 63.4548 40.1375C65.4265 39.3125 67.9871 38.8625 71.2522 39.2375C78.2446 40.05 79.6134 44.4 79.3497 46.2125C79.086 48.025 77.6167 49.0375 77.1269 49.3375C76.6371 49.6375 76.4864 49.75 76.5241 49.975C76.5869 50.3 76.8129 50.2875 77.2274 50.2125C77.805 50.1125 80.8931 48.7375 81.0312 45.375C81.2321 41.125 77.1269 36.45 69.8545 36.4875L69.8582 36.49ZM15.9612 54.5775C13.6518 57.09 10.4118 58.04 9.01908 57.24C7.52467 56.375 8.1149 52.6775 10.9643 50C12.6974 48.375 14.9315 46.875 16.4133 45.95C16.7524 45.75 17.2422 45.45 17.8449 45.0875C17.9454 45.025 17.9956 45 17.9956 45C18.1087 44.925 18.2342 44.8625 18.3598 44.7875C19.4009 48.5875 18.3975 51.9375 15.9612 54.575V54.5775ZM32.8343 43.1525C32.0306 45.115 30.3365 50.115 29.3068 49.8525C28.4277 49.6275 27.8877 45.815 29.1309 42.065C29.7589 40.1775 31.09 37.9275 31.8812 37.0525C33.1483 35.64 34.5422 35.19 34.8688 35.7525C35.3083 36.49 33.3367 41.9275 32.8343 43.1525ZM46.7739 49.7775C46.4348 49.9525 46.1208 50.065 45.9701 49.9775C45.8571 49.915 46.1083 49.6775 46.1083 49.6775C46.1083 49.6775 47.8539 47.815 48.5446 46.965C48.9464 46.465 49.4111 45.8775 49.9122 45.2275C49.9122 45.29 49.9247 45.3525 49.9247 45.4275C49.9084 47.665 47.7496 49.1775 46.7701 49.7775H46.7739ZM57.5211 47.34C57.27 47.165 57.3076 46.5775 58.149 44.7525C58.4755 44.04 59.2278 42.84 60.5351 41.69C60.6831 42.1253 60.7635 42.5806 60.7737 43.04C60.7611 45.8525 58.7393 46.9025 57.5224 47.34H57.5211Z" fill="#CD6799"/>
</g>
<defs>
<clipPath id="clip0_717_85">
<rect width="80.3721" height="64" fill="white" transform="translate(0.666626)"/>
</clipPath>
</defs>
</svg>
